<?xml version="1.0" encoding="UTF-8"?>
<svg id="Capa_1" xmlns="http://www.w3.org/2000/svg" version="1.1" viewBox="0 0 24 24">
  <!-- Generator: Adobe Illustrator 29.4.0, SVG Export Plug-In . SVG Version: 2.1.0 Build 152)  -->
  <defs>
    <style>
      .st0 {
        fill: #000095;
      }
    </style>
  </defs>
  <path class="st0" d="M5,21c-.6,0-1-.2-1.4-.6-.4-.4-.6-.9-.6-1.4V5c0-.6.2-1,.6-1.4.4-.4.9-.6,1.4-.6h8.9l-2,2h-6.9v14h14v-7l2-2v9c0,.6-.2,1-.6,1.4-.4.4-.9.6-1.4.6H5ZM9,15v-4.3L18.2,1.6c.2-.2.4-.4.7-.5s.5-.2.8-.2.5,0,.8.2.5.3.7.5l1.4,1.4c.2.2.3.4.4.7s.2.5.2.7,0,.5-.1.7-.2.5-.4.7l-9.2,9.2h-4.3ZM21,4.4l-1.4-1.4,1.4,1.4ZM11,13h1.4l5.8-5.8-.7-.7-.7-.7-5.8,5.8v1.4ZM17.5,6.5l-.7-.7.7.7.7.7-.7-.7Z"/>
</svg>