<svg xmlns="http://www.w3.org/2000/svg" xmlns:xlink="http://www.w3.org/1999/xlink" width="24" height="24" viewBox="0 0 24 24">
  <defs>
    <clipPath id="clip-Artboard_1">
      <rect width="24" height="24"/>
    </clipPath>
  </defs>
  <g id="Artboard_1" data-name="Artboard – 1" clip-path="url(#clip-Artboard_1)">
    <path id="Path_1473" data-name="Path 1473" d="M42.5,26.041a9.327,9.327,0,0,0-14.679,11.25L26.5,42.123l4.944-1.3A9.32,9.32,0,0,0,35.9,41.961h0a9.327,9.327,0,0,0,6.6-15.919M35.9,40.386h0a7.744,7.744,0,0,1-3.945-1.08l-.283-.168-2.934.769.783-2.859-.184-.293A7.752,7.752,0,1,1,35.9,40.386m4.252-5.8c-.233-.117-1.379-.68-1.592-.758s-.369-.117-.524.117-.6.758-.738.913-.272.175-.5.058a6.359,6.359,0,0,1-1.874-1.156,7.022,7.022,0,0,1-1.3-1.614c-.136-.233-.015-.359.1-.476s.233-.272.35-.408a1.588,1.588,0,0,0,.233-.389.428.428,0,0,0-.019-.408c-.058-.117-.524-1.263-.719-1.73s-.381-.393-.524-.4-.291-.008-.446-.008a.856.856,0,0,0-.621.292,2.611,2.611,0,0,0-.816,1.943,4.533,4.533,0,0,0,.952,2.41A10.388,10.388,0,0,0,36.1,36.487a13.492,13.492,0,0,0,1.328.491,3.194,3.194,0,0,0,1.468.092,2.4,2.4,0,0,0,1.573-1.108,1.945,1.945,0,0,0,.136-1.108c-.058-.1-.213-.156-.446-.272" transform="translate(-23.5 -20.307)" fill="#fff" fill-rule="evenodd"/>
  </g>
</svg>
