<svg xmlns="http://www.w3.org/2000/svg" xmlns:xlink="http://www.w3.org/1999/xlink" width="32" height="32" viewBox="0 0 32 32">
  <defs>
    <clipPath id="clip-Artboard_1">
      <rect width="32" height="32"/>
    </clipPath>
  </defs>
  <g id="Artboard_1" data-name="Artboard – 1" clip-path="url(#clip-Artboard_1)">
    <g id="Group_1356" data-name="Group 1356" transform="translate(4 4)">
      <path id="Path_807" data-name="Path 807" d="M0,4A4,4,0,0,1,4,0H20a4,4,0,0,1,4,4V20a4,4,0,0,1-4,4H4a4,4,0,0,1-4-4Z" fill="#eee"/>
      <path id="Path_808" data-name="Path 808" d="M19,6.41,17.59,5,12,10.59,6.41,5,5,6.41,10.59,12,5,17.59,6.41,19,12,13.41,17.59,19,19,17.59,13.41,12Z" fill="#5e6a71"/>
    </g>
  </g>
</svg>
