<?xml version="1.0" encoding="UTF-8"?>
<svg id="Capa_1" data-name="Capa 1" xmlns="http://www.w3.org/2000/svg" width="40" height="40" viewBox="0 0 40 40">
  <path id="Path_1039" data-name="Path 1039" d="M31.28,36.41c-.59.54-1.42.72-2.18.48l-8.27-4.29h-1.65l-8.08,4.22c-1.07.46-2.32-.03-2.78-1.11-.11-.24-.16-.5-.17-.77.04-2.66,1.36-6.24,1.58-8.99.09-.58-.07-1.18-.45-1.64-1.68-2.26-4.89-4.39-6.75-6.6-.68-.92-.49-2.21.43-2.89.24-.17.51-.3.79-.36,2.69-.69,6.05-.64,8.8-1.26.72-.13,1.34-.57,1.72-1.19,1.52-2.3,2.41-5.78,3.97-8.05.65-.98,1.96-1.24,2.94-.6.21.14.39.31.54.52,1.47,2.03,2.52,5.53,3.85,7.78.34.79,1.05,1.37,1.89,1.55,2.71.65,6.11.56,8.8,1.26,1.11.24,1.82,1.34,1.58,2.45-.06.26-.16.5-.31.72l-6.8,6.68c-.33.43-.49.96-.45,1.5.11,2.74,1.5,6.29,1.58,9,0,.58-.2,1.15-.58,1.6" fill="#000095"/>
</svg>